<svg width="19" height="19" viewBox="0 0 19 19" fill="none" xmlns="http://www.w3.org/2000/svg">
<path d="M7.20967 4.31365C7.68309 2.92823 9.59734 2.88628 10.1586 4.18778L10.2061 4.31444L10.845 6.18278C10.9914 6.61125 11.228 7.00335 11.5388 7.33261C11.8497 7.66188 12.2275 7.92065 12.6468 8.09148L12.8186 8.15561L14.687 8.79369C16.0724 9.26711 16.1143 11.1814 14.8136 11.7427L14.687 11.7902L12.8186 12.429C12.39 12.5753 11.9978 12.8119 11.6684 13.1227C11.3389 13.4336 11.08 13.8114 10.9091 14.2309L10.845 14.4019L10.2069 16.271C9.7335 17.6564 7.81925 17.6984 7.25875 16.3977L7.20967 16.271L6.57159 14.4027C6.42527 13.974 6.18871 13.5818 5.87788 13.2524C5.56705 12.923 5.18917 12.6641 4.76975 12.4932L4.59875 12.429L2.73042 11.7909C1.34421 11.3175 1.30225 9.40328 2.60375 8.84278L2.73042 8.79369L4.59875 8.15561C5.02723 8.0092 5.41932 7.7726 5.74859 7.46177C6.07785 7.15094 6.33663 6.77311 6.50746 6.35378L6.57159 6.18278L7.20967 4.31365ZM8.7083 4.82507L8.07021 6.6934C7.84727 7.34677 7.48459 7.94368 7.00743 8.44259C6.53026 8.94149 5.95009 9.33038 5.30729 9.58219L5.10938 9.65423L3.24104 10.2923L5.10938 10.9304C5.76274 11.1533 6.35966 11.516 6.85856 11.9932C7.35746 12.4703 7.74636 13.0505 7.99817 13.6933L8.07021 13.8912L8.7083 15.7596L9.34638 13.8912C9.56932 13.2379 9.932 12.641 10.4092 12.1421C10.8863 11.6431 11.4665 11.2543 12.1093 11.0024L12.3072 10.9312L14.1755 10.2923L12.3072 9.65423C11.6538 9.43129 11.0569 9.06861 10.558 8.59145C10.0591 8.11429 9.67023 7.53411 9.41842 6.89132L9.34717 6.6934L8.7083 4.82507ZM15.0416 1.58398C15.1897 1.58398 15.3349 1.62553 15.4605 1.7039C15.5862 1.78227 15.6874 1.89432 15.7525 2.02732L15.7905 2.11994L16.0676 2.93219L16.8807 3.20928C17.0291 3.2597 17.1592 3.35306 17.2545 3.4775C17.3498 3.60195 17.4061 3.7519 17.4161 3.90833C17.4261 4.06477 17.3894 4.22065 17.3107 4.35623C17.232 4.49181 17.1149 4.60098 16.9741 4.6699L16.8807 4.7079L16.0684 4.98498L15.7913 5.79803C15.7408 5.94641 15.6474 6.07645 15.5229 6.17169C15.3984 6.26692 15.2484 6.32305 15.092 6.33297C14.9356 6.34289 14.7797 6.30615 14.6442 6.22741C14.5087 6.14867 14.3996 6.03146 14.3307 5.89065L14.2927 5.79803L14.0156 4.98578L13.2026 4.70869C13.0542 4.65827 12.9241 4.56491 12.8287 4.44046C12.7334 4.31601 12.6772 4.16607 12.6672 4.00963C12.6572 3.8532 12.6939 3.69731 12.7725 3.56174C12.8512 3.42616 12.9684 3.31699 13.1092 3.24807L13.2026 3.21007L14.0148 2.93298L14.2919 2.11994C14.3453 1.96353 14.4463 1.82775 14.5807 1.73163C14.7152 1.63551 14.8764 1.58389 15.0416 1.58398Z" fill="#404040"/>
</svg>
