<svg width="18" height="18" viewBox="0 0 18 18" fill="none" xmlns="http://www.w3.org/2000/svg">
<path d="M14.25 7.875V7.5C14.25 4.67175 14.25 3.25725 13.371 2.379C12.492 1.50075 11.0782 1.5 8.25 1.5C5.42175 1.5 4.00725 1.5 3.129 2.379C2.25075 3.258 2.25 4.67175 2.25 7.5V12C2.25 13.398 2.25 14.097 2.478 14.6475C2.62876 15.0115 2.84976 15.3423 3.12837 15.6209C3.40697 15.8995 3.73773 16.1205 4.10175 16.2712C4.653 16.5 5.352 16.5 6.75 16.5" stroke="black" stroke-width="1.125" stroke-linecap="round" stroke-linejoin="round"/>
<path d="M5.25 5.25H11.25M5.25 8.25H8.25" stroke="black" stroke-width="1.125" stroke-linecap="round"/>
<path d="M11.4622 14.2529C11.4172 13.5869 11.3385 12.8744 11.0115 12.0689C10.7318 11.3819 10.8098 9.76562 12.375 9.76562C13.9402 9.76562 13.9995 11.3819 13.7205 12.0681C13.3935 12.8744 13.332 13.5869 13.2885 14.2529M15.75 16.4999H9V15.5654C9 15.2309 9.1995 14.9361 9.48975 14.8446L11.181 14.3076C11.302 14.2691 11.4255 14.2499 11.5515 14.2499H13.1985C13.3245 14.2499 13.448 14.2691 13.569 14.3076L15.2603 14.8446C15.5505 14.9361 15.75 15.2309 15.75 15.5654V16.4999Z" stroke="black" stroke-width="1.125" stroke-linecap="round" stroke-linejoin="round"/>
</svg>
