<svg width="14" height="16" viewBox="0 0 14 16" fill="none" xmlns="http://www.w3.org/2000/svg">
<path d="M13.14 0C13.34 0 13.5125 0.0725002 13.6575 0.217501C13.8025 0.3625 13.875 0.54 13.875 0.75V4.5C13.875 4.71 13.8025 4.8875 13.6575 5.0325C13.5125 5.1775 13.335 5.25 13.125 5.25H9.39V15C9.38 15.21 9.3025 15.3875 9.1575 15.5325C9.0125 15.6775 8.84 15.75 8.64 15.75H5.64C5.43 15.75 5.25 15.6775 5.1 15.5325C4.95 15.3875 4.875 15.21 4.875 15V5.25H0.765C0.555 5.25 0.3775 5.1775 0.2325 5.0325C0.0875 4.8875 0.01 4.71 0 4.5V2.715C0.01 2.575 0.05 2.445 0.12 2.325C0.19 2.205 0.29 2.11 0.42 2.04L4.515 0H13.14ZM9.39 1.5H4.86L1.515 3.18V3.75H6.39V14.25H7.89V3.75H9.39V1.5ZM12.39 1.5H10.89V3.75H12.39V1.5Z" fill="#4B5563"/>
</svg>
