<svg width="19" height="18" viewBox="0 0 19 18" fill="none" xmlns="http://www.w3.org/2000/svg">
<path d="M9.00977 8.25C9.68976 8.25 10.3173 8.4175 10.8923 8.7525C11.4673 9.0875 11.9223 9.5425 12.2573 10.1175C12.5923 10.6925 12.7598 11.32 12.7598 12V16.5H11.2598V12C11.2598 11.61 11.1648 11.2475 10.9748 10.9125C10.7848 10.5775 10.5298 10.3075 10.2098 10.1025C9.88977 9.8975 9.53477 9.78 9.14477 9.75H9.00977C8.61977 9.75 8.25727 9.845 7.92227 10.035C7.58727 10.225 7.31727 10.48 7.11227 10.8C6.90727 11.12 6.78977 11.475 6.75977 11.865V16.5H5.25977V12C5.25977 11.32 5.42727 10.6925 5.76227 10.1175C6.09727 9.5425 6.55227 9.0875 7.12727 8.7525C7.70227 8.4175 8.32977 8.25 9.00977 8.25ZM4.13477 10.5C4.34477 10.5 4.54977 10.525 4.74977 10.575C4.61977 10.955 4.53977 11.345 4.50977 11.745V12.06C4.41977 12.03 4.32977 12.01 4.23977 12H4.13477C3.84477 12 3.59227 12.0975 3.37727 12.2925C3.16227 12.4875 3.03977 12.73 3.00977 13.02V13.125V16.5H1.50977V13.125C1.50977 12.645 1.62727 12.205 1.86227 11.805C2.09727 11.405 2.41477 11.0875 2.81477 10.8525C3.21477 10.6175 3.65477 10.5 4.13477 10.5ZM13.8848 10.5C14.3648 10.5 14.8048 10.6175 15.2048 10.8525C15.6048 11.0875 15.9223 11.405 16.1573 11.805C16.3923 12.205 16.5098 12.645 16.5098 13.125V16.5H15.0098V13.125C15.0098 12.835 14.9123 12.5825 14.7173 12.3675C14.5223 12.1525 14.2798 12.03 13.9898 12H13.8848C13.7548 12 13.6298 12.02 13.5098 12.06V12C13.5098 11.51 13.4348 11.035 13.2848 10.575C13.4748 10.525 13.6748 10.5 13.8848 10.5ZM4.13477 6C4.47477 6 4.78727 6.085 5.07227 6.255C5.35727 6.425 5.58477 6.6525 5.75477 6.9375C5.92477 7.2225 6.00977 7.535 6.00977 7.875C6.00977 8.215 5.92477 8.5275 5.75477 8.8125C5.58477 9.0975 5.35727 9.325 5.07227 9.495C4.78727 9.665 4.47477 9.75 4.13477 9.75C3.79477 9.75 3.48227 9.665 3.19727 9.495C2.91227 9.325 2.68477 9.0975 2.51477 8.8125C2.34477 8.5275 2.25977 8.215 2.25977 7.875C2.25977 7.535 2.34477 7.2225 2.51477 6.9375C2.68477 6.6525 2.91227 6.425 3.19727 6.255C3.48227 6.085 3.79477 6 4.13477 6ZM13.8848 6C14.2248 6 14.5373 6.085 14.8223 6.255C15.1073 6.425 15.3348 6.6525 15.5048 6.9375C15.6748 7.2225 15.7598 7.535 15.7598 7.875C15.7598 8.215 15.6748 8.5275 15.5048 8.8125C15.3348 9.0975 15.1073 9.325 14.8223 9.495C14.5373 9.665 14.2248 9.75 13.8848 9.75C13.5448 9.75 13.2323 9.665 12.9473 9.495C12.6623 9.325 12.4348 9.0975 12.2648 8.8125C12.0948 8.5275 12.0098 8.215 12.0098 7.875C12.0098 7.535 12.0948 7.2225 12.2648 6.9375C12.4348 6.6525 12.6623 6.425 12.9473 6.255C13.2323 6.085 13.5448 6 13.8848 6ZM4.13477 7.5C4.03477 7.5 3.94727 7.5375 3.87227 7.6125C3.79727 7.6875 3.75977 7.775 3.75977 7.875C3.75977 7.975 3.79727 8.0625 3.87227 8.1375C3.94727 8.2125 4.03477 8.25 4.13477 8.25C4.23477 8.25 4.32227 8.2125 4.39727 8.1375C4.47227 8.0625 4.50977 7.975 4.50977 7.875C4.50977 7.775 4.47227 7.6875 4.39727 7.6125C4.32227 7.5375 4.23477 7.5 4.13477 7.5ZM13.8848 7.5C13.7848 7.5 13.6973 7.5375 13.6223 7.6125C13.5473 7.6875 13.5098 7.775 13.5098 7.875C13.5098 7.975 13.5473 8.0625 13.6223 8.1375C13.6973 8.2125 13.7848 8.25 13.8848 8.25C13.9848 8.25 14.0723 8.2125 14.1473 8.1375C14.2223 8.0625 14.2598 7.975 14.2598 7.875C14.2598 7.775 14.2223 7.6875 14.1473 7.6125C14.0723 7.5375 13.9848 7.5 13.8848 7.5ZM9.00977 1.5C9.54977 1.5 10.0498 1.635 10.5098 1.905C10.9698 2.175 11.3348 2.54 11.6048 3C11.8748 3.46 12.0098 3.96 12.0098 4.5C12.0098 5.04 11.8748 5.54 11.6048 6C11.3348 6.46 10.9698 6.825 10.5098 7.095C10.0498 7.365 9.54977 7.5 9.00977 7.5C8.46977 7.5 7.96977 7.365 7.50977 7.095C7.04977 6.825 6.68477 6.46 6.41477 6C6.14477 5.54 6.00977 5.04 6.00977 4.5C6.00977 3.96 6.14477 3.46 6.41477 3C6.68477 2.54 7.04977 2.175 7.50977 1.905C7.96977 1.635 8.46977 1.5 9.00977 1.5ZM9.00977 3C8.73977 3 8.48977 3.0675 8.25977 3.2025C8.02977 3.3375 7.84727 3.52 7.71227 3.75C7.57727 3.98 7.50977 4.23 7.50977 4.5C7.50977 4.77 7.57727 5.02 7.71227 5.25C7.84727 5.48 8.02977 5.6625 8.25977 5.7975C8.48977 5.9325 8.73977 6 9.00977 6C9.27977 6 9.52977 5.9325 9.75977 5.7975C9.98977 5.6625 10.1723 5.48 10.3073 5.25C10.4423 5.02 10.5098 4.77 10.5098 4.5C10.5098 4.23 10.4423 3.98 10.3073 3.75C10.1723 3.52 9.98977 3.3375 9.75977 3.2025C9.52977 3.0675 9.27977 3 9.00977 3Z" fill="#4B5563"/>
</svg>
