<svg width="22" height="22" viewBox="0 0 22 22" fill="none" xmlns="http://www.w3.org/2000/svg">
<path fill-rule="evenodd" clip-rule="evenodd" d="M3.66699 4.125H14.667V10.0833H16.042V2.75H2.29199V13.75C2.29199 14.2362 2.48515 14.7025 2.82896 15.0464C3.17278 15.3902 3.6391 15.5833 4.12533 15.5833H10.542V14.2083H4.12533C4.00377 14.2083 3.88719 14.16 3.80124 14.0741C3.71528 13.9881 3.66699 13.8716 3.66699 13.75V4.125ZM13.292 5.95833H5.04199V7.33333H13.292V5.95833ZM8.70866 8.70833H5.04199V10.0833H8.70866V8.70833ZM11.917 10.0833H11.0003V11H11.917V10.0833ZM11.0003 8.70833H9.62533V12.375H13.292V8.70833H11.917H11.0003ZM8.70866 11H5.04199V12.375H8.70866V11ZM14.667 12.1458H16.042V14.2083H18.1045V15.5833H16.042V17.6458H14.667V15.5833H12.6045V14.2083H14.667V12.1458Z" fill="#404040"/>
</svg>
