<svg width="16" height="16" viewBox="0 0 16 16" fill="none" xmlns="http://www.w3.org/2000/svg">
<g clip-path="url(#clip0_10519_107869)">
<path d="M6.70932 12.334H1.33398V10.4673C3.06644 9.50206 5.01744 8.9971 7.00065 9.00065C8.03798 9.00065 9.04332 9.13598 10.0007 9.38998M14.6673 12.334H8.66732M12.0007 15.0007L14.6673 12.334L12.0007 9.66732M4.33398 4.16732C4.33398 4.91876 4.6325 5.63943 5.16385 6.17079C5.6952 6.70214 6.41587 7.00065 7.16732 7.00065C7.91876 7.00065 8.63943 6.70214 9.17079 6.17079C9.70214 5.63943 10.0007 4.91876 10.0007 4.16732C10.0007 3.41587 9.70214 2.6952 9.17079 2.16385C8.63943 1.6325 7.91876 1.33398 7.16732 1.33398C6.41587 1.33398 5.6952 1.6325 5.16385 2.16385C4.6325 2.6952 4.33398 3.41587 4.33398 4.16732Z" stroke="#404040" stroke-width="1.125"/>
</g>
<defs>
<clipPath id="clip0_10519_107869">
<rect width="16" height="16" fill="white"/>
</clipPath>
</defs>
</svg>
