<svg width="17" height="17" viewBox="0 0 17 17" fill="none" xmlns="http://www.w3.org/2000/svg">
<path d="M6.66667 11.6667C8.05556 11.6667 9.23611 11.1806 10.2083 10.2083C11.1806 9.23611 11.6667 8.05556 11.6667 6.66667C11.6667 5.27778 11.1806 4.09722 10.2083 3.125C9.23611 2.15278 8.05556 1.66667 6.66667 1.66667C5.27778 1.66667 4.09722 2.15278 3.125 3.125C2.15278 4.09722 1.66667 5.27778 1.66667 6.66667C1.66667 8.05556 2.15278 9.23611 3.125 10.2083C4.09722 11.1806 5.27778 11.6667 6.66667 11.6667ZM5.83333 9.16667V3.33333H7.5V9.16667H5.83333ZM2.91667 9.16667V5H4.58333V9.16667H2.91667ZM8.75 9.16667V5.83333H10.4167V9.16667H8.75ZM15.5 16.6667L10.7708 11.9375C10.2014 12.3819 9.56944 12.7258 8.875 12.9692C8.18056 13.2125 7.44444 13.3339 6.66667 13.3333C4.80556 13.3333 3.22917 12.6875 1.9375 11.3958C0.645833 10.1042 0 8.52778 0 6.66667C0 4.80556 0.645833 3.22917 1.9375 1.9375C3.22917 0.645833 4.80556 0 6.66667 0C8.52778 0 10.1042 0.645833 11.3958 1.9375C12.6875 3.22917 13.3333 4.80556 13.3333 6.66667C13.3333 7.44444 13.2119 8.18056 12.9692 8.875C12.7264 9.56944 12.3825 10.2014 11.9375 10.7708L16.6667 15.5L15.5 16.6667Z" fill="#404040"/>
</svg>
