<svg width="16" height="16" viewBox="0 0 16 16" fill="none" xmlns="http://www.w3.org/2000/svg">
<path d="M9.99967 4.66667H5.99967M9.99967 7.33333H5.99967M9.99967 10H7.33301M3.33301 2H12.6663V14L11.9783 13.4107C11.7367 13.2036 11.4289 13.0897 11.1107 13.0897C10.7924 13.0897 10.4847 13.2036 10.243 13.4107L9.55501 14L8.86767 13.4107C8.62598 13.2034 8.31808 13.0894 7.99967 13.0894C7.68127 13.0894 7.37337 13.2034 7.13167 13.4107L6.44434 14L5.75634 13.4107C5.51469 13.2036 5.20693 13.0897 4.88867 13.0897C4.57042 13.0897 4.26266 13.2036 4.02101 13.4107L3.33301 14V2Z" stroke="#404040" stroke-width="1.5" stroke-linecap="round" stroke-linejoin="round"/>
</svg>
