<svg width="15" height="15" viewBox="0 0 15 15" fill="none" xmlns="http://www.w3.org/2000/svg">
<path d="M10 12.5V11.875C10 11.212 9.73661 10.5761 9.26777 10.1072C8.79893 9.63839 8.16304 9.375 7.5 9.375H3.125C2.46196 9.375 1.82607 9.63839 1.35723 10.1072C0.888392 10.5761 0.625 11.212 0.625 11.875V12.5M9.6875 6.875C10.3505 6.875 10.9864 6.61161 11.4553 6.14277C11.9241 5.67393 12.1875 5.03804 12.1875 4.375C12.1875 3.71196 11.9241 3.07607 11.4553 2.60723C10.9864 2.13839 10.3505 1.875 9.6875 1.875M14.375 12.5V11.875C14.375 11.212 14.1116 10.5761 13.6428 10.1072C13.1739 9.63839 12.538 9.375 11.875 9.375M7.8125 4.375C7.8125 5.03804 7.54911 5.67393 7.08027 6.14277C6.61143 6.61161 5.97554 6.875 5.3125 6.875C4.64946 6.875 4.01357 6.61161 3.54473 6.14277C3.07589 5.67393 2.8125 5.03804 2.8125 4.375C2.8125 3.71196 3.07589 3.07607 3.54473 2.60723C4.01357 2.13839 4.64946 1.875 5.3125 1.875C5.97554 1.875 6.61143 2.13839 7.08027 2.60723C7.54911 3.07607 7.8125 3.71196 7.8125 4.375Z" stroke="#404040" stroke-width="1.25" stroke-linecap="square"/>
</svg>
