<svg width="15" height="15" viewBox="0 0 15 15" fill="none" xmlns="http://www.w3.org/2000/svg">
<path d="M8.7525 6.40275C8.69308 6.40235 8.63592 6.42547 8.59348 6.46706C8.55105 6.50865 8.52679 6.56534 8.526 6.62475V8.28375C8.52679 8.34329 8.55115 8.4001 8.59375 8.44171C8.63635 8.48332 8.6937 8.50635 8.75325 8.50575H13.7505C13.81 8.50635 13.8674 8.48332 13.91 8.44171C13.9526 8.4001 13.977 8.34329 13.9777 8.28375V6.62475C13.977 6.56521 13.9526 6.5084 13.91 6.46679C13.8674 6.42518 13.81 6.40215 13.7505 6.40275H8.7525ZM11.817 1.12575C12.5085 1.15875 13.0057 1.29525 13.3207 1.58475C13.632 1.87125 13.7917 2.286 13.8232 2.835V4.40775C13.8217 4.54169 13.767 4.66952 13.6712 4.76318C13.5755 4.85683 13.4464 4.90865 13.3125 4.90725C13.2461 4.90804 13.1802 4.89575 13.1186 4.87108C13.057 4.8464 13.0008 4.80983 12.9533 4.76345C12.9058 4.71706 12.8679 4.66178 12.8418 4.60075C12.8156 4.53971 12.8018 4.47413 12.801 4.40775L12.8018 2.8635C12.7852 2.5785 12.717 2.4015 12.6195 2.3115C12.525 2.2245 12.237 2.1465 11.7922 2.124H1.98525C1.5825 2.139 1.32075 2.2155 1.194 2.32425C1.0965 2.4075 1.023 2.637 1.02225 3.03375L1.02 11.8612C1.0575 12.2467 1.14225 12.504 1.251 12.6322C1.3335 12.7298 1.58925 12.8272 1.96575 12.8752H11.8028C12.2633 12.8842 12.5347 12.8153 12.6262 12.723C12.7275 12.6203 12.801 12.3503 12.801 11.9085V10.3748C12.801 10.0995 13.0297 9.87525 13.3125 9.87525C13.5945 9.87525 13.8232 10.0995 13.8232 10.3748V11.9085C13.8232 12.5835 13.6853 13.0883 13.362 13.416C13.029 13.7535 12.4995 13.8885 11.7922 13.8735L1.905 13.8713C1.23225 13.7933 0.75 13.6087 0.46275 13.269C0.2025 12.9615 0.05775 12.5227 0 11.9093V3.033C0.0015 2.376 0.159 1.88175 0.5205 1.57275C0.852 1.28775 1.3305 1.149 1.96575 1.125L11.817 1.12575ZM13.7505 5.40375C14.4405 5.40375 15 5.9505 15 6.62475V8.28375C15 8.958 14.4405 9.50475 13.7505 9.50475H8.75325C8.06325 9.50475 7.50375 8.95725 7.50375 8.28375V6.62475C7.50375 5.9505 8.06325 5.40375 8.75325 5.40375H13.7505ZM10.0028 6.85875C9.65775 6.85875 9.378 7.12875 9.378 7.461C9.378 7.79325 9.65775 8.06325 10.0028 8.06325C10.3477 8.06325 10.6275 7.79325 10.6275 7.461C10.6275 7.12875 10.3477 6.858 10.0028 6.858" fill="#404040"/>
</svg>
