<svg width="18" height="18" viewBox="0 0 18 18" fill="none" xmlns="http://www.w3.org/2000/svg">
<path d="M13.0282 14.8702L15.1583 12.7733L14.6887 12.303L13.0282 13.9403L12.312 13.209L11.8417 13.683L13.0282 14.8702ZM5.0775 6.54825H12.924V5.79825H5.07675L5.0775 6.54825ZM13.5 16.587C12.6645 16.587 11.9557 16.2957 11.3737 15.7133C10.7913 15.1313 10.5 14.4225 10.5 13.587C10.5 12.7515 10.7913 12.0425 11.3737 11.46C11.9563 10.8775 12.665 10.5865 13.5 10.587C14.335 10.5875 15.044 10.8785 15.627 11.46C16.21 12.0415 16.501 12.7505 16.5 13.587C16.5 14.422 16.209 15.1308 15.627 15.7133C15.044 16.2957 14.335 16.587 13.5 16.587ZM3 15.5767V3H15V8.67C14.878 8.625 14.757 8.5865 14.637 8.5545C14.5165 8.5225 14.3875 8.4975 14.25 8.4795V3.75H3.75V14.2875H8.508C8.542 14.4925 8.586 14.693 8.64 14.889C8.6945 15.085 8.77025 15.272 8.86725 15.45L8.84175 15.4755L7.9905 14.856L6.981 15.5767L5.9715 14.856L4.962 15.5767L3.95175 14.856L3 15.5767ZM5.0775 12.2017H8.60925C8.63725 12.0642 8.67175 11.9355 8.71275 11.8155C8.75375 11.6955 8.80175 11.5743 8.85675 11.4517H5.0775V12.2017ZM5.0775 9.375H10.56C10.805 9.1815 11.0675 9.02025 11.3475 8.89125C11.6275 8.76175 11.9268 8.673 12.2452 8.625H5.07675L5.0775 9.375Z" fill="#404040"/>
</svg>
