<svg width="19" height="18" viewBox="0 0 19 18" fill="none" xmlns="http://www.w3.org/2000/svg">
<path d="M15.7598 14.25H17.2598V15.75H0.759766V14.25H2.25977V3C2.25977 2.79 2.33227 2.6125 2.47727 2.4675C2.62227 2.3225 2.79977 2.25 3.00977 2.25H10.5098C10.7198 2.25 10.8973 2.3225 11.0423 2.4675C11.1873 2.6125 11.2598 2.79 11.2598 3V14.25H14.2598V8.25H12.7598V6.75H15.0098C15.2198 6.75 15.3973 6.8225 15.5423 6.9675C15.6873 7.1125 15.7598 7.29 15.7598 7.5V14.25ZM3.75977 3.75V14.25H9.75977V3.75H3.75977ZM5.25977 8.25H8.25977V9.75H5.25977V8.25ZM5.25977 5.25H8.25977V6.75H5.25977V5.25Z" fill="#4B5563"/>
</svg>
