<svg width="20" height="20" viewBox="0 0 20 20" fill="none" xmlns="http://www.w3.org/2000/svg">
<path opacity="0.5" d="M17.0102 6.08708C17.0569 5.82059 17.0447 5.54711 16.9745 5.28584C16.9042 5.02456 16.7777 4.78182 16.6036 4.57466C16.4296 4.3675 16.2124 4.20094 15.9672 4.08666C15.7219 3.97239 15.4546 3.91317 15.1841 3.91317H5.68497C5.41442 3.91317 5.14715 3.97239 4.90191 4.08666C4.65668 4.20094 4.43943 4.3675 4.26542 4.57466C4.0914 4.78182 3.96484 5.02456 3.89461 5.28584C3.82438 5.54711 3.81218 5.82059 3.85888 6.08708M15.2171 3.91317C15.2415 3.68708 15.2545 3.57491 15.2545 3.48187C15.2555 3.05203 15.0972 2.63708 14.8103 2.31705C14.5233 1.99703 14.128 1.7946 13.7006 1.74882C13.6084 1.73926 13.4954 1.73926 13.2693 1.73926H7.59975C7.37366 1.73926 7.25975 1.73926 7.16758 1.74882C6.74019 1.7946 6.34489 1.99703 6.05794 2.31705C5.77099 2.63708 5.61272 3.05203 5.61366 3.48187C5.61366 3.57491 5.62584 3.68795 5.65105 3.91317" stroke="white" stroke-width="1.30435"/>
<path d="M13.0436 15.6523H7.82617" stroke="white" stroke-width="1.30435" stroke-linecap="round"/>
<path d="M2.07346 11.9939C1.68476 9.24257 1.49085 7.86778 2.3152 6.97648C3.13954 6.08691 4.60737 6.08691 7.54128 6.08691H13.3291C16.263 6.08691 17.7308 6.08691 18.5552 6.97735C19.3795 7.86778 19.1848 9.24257 18.7969 11.9939L18.43 14.6026C18.1256 16.7591 17.9735 17.8382 17.1935 18.4843C16.4135 19.1304 15.263 19.1304 12.9613 19.1304H7.90911C5.60824 19.1304 4.45694 19.1304 3.67694 18.4843C2.89694 17.8382 2.74476 16.76 2.44041 14.6026L2.07346 11.9939Z" stroke="white" stroke-width="1.30435"/>
</svg>
