<svg width="17" height="17" viewBox="0 0 17 17" fill="none" xmlns="http://www.w3.org/2000/svg">
<g clip-path="url(#clip0_10966_26061)">
<path d="M1.41699 9.91667C1.41699 7.43254 1.41699 6.19083 2.06016 5.355C2.17821 5.20153 2.30902 5.06175 2.45258 4.93567C3.23741 4.25 4.40049 4.25 6.72949 4.25H10.2712C12.6002 4.25 13.764 4.25 14.5481 4.93567C14.6916 5.06222 14.8224 5.202 14.9405 5.355C15.5837 6.19083 15.5837 7.43254 15.5837 9.91667C15.5837 12.4008 15.5837 13.6425 14.9405 14.4783C14.8242 14.6308 14.6927 14.7711 14.5481 14.897C13.7632 15.5833 12.6002 15.5833 10.2712 15.5833H6.72949C4.4012 15.5833 3.2367 15.5833 2.45258 14.8977C2.3079 14.7715 2.17642 14.631 2.06016 14.4783C1.41699 13.6425 1.41699 12.4008 1.41699 9.91667Z" stroke="#404040" stroke-width="1.5"/>
<path d="M11.3337 4.24935C11.3337 2.91343 11.3337 2.24618 10.9186 1.8311C10.5035 1.41602 9.83624 1.41602 8.50033 1.41602C7.16441 1.41602 6.49716 1.41602 6.08208 1.8311C5.66699 2.24618 5.66699 2.91343 5.66699 4.24935" stroke="#404040" stroke-width="1.5" stroke-linecap="round" stroke-linejoin="round"/>
<path d="M8.50033 7.79036C7.71762 7.79036 7.08366 8.26636 7.08366 8.85286C7.08366 9.43936 7.71762 9.91536 8.50033 9.91536C9.28303 9.91536 9.91699 10.3914 9.91699 10.9779C9.91699 11.5644 9.28303 12.0404 8.50033 12.0404M8.50033 7.79036C9.11658 7.79036 9.64216 8.08574 9.83624 8.4987M8.50033 7.79036V7.08203M8.50033 12.0404C7.88408 12.0404 7.35849 11.745 7.16441 11.332M8.50033 12.0404V12.7487M4.25033 8.4987H1.41699M15.5837 8.4987H12.7503" stroke="#404040" stroke-width="1.5" stroke-linecap="round"/>
</g>
<defs>
<clipPath id="clip0_10966_26061">
<rect width="17" height="17" fill="white"/>
</clipPath>
</defs>
</svg>
