<svg width="20" height="20" viewBox="0 0 20 20" fill="none" xmlns="http://www.w3.org/2000/svg">
<path d="M7.5 13.7505C7.5 13.7505 7.9175 11.6672 8.33333 11.6672C8.74917 11.6672 9.225 13.7505 9.58333 13.7505C9.94167 13.7505 10.0292 12.9172 10.4167 12.9172C10.8042 12.9172 10.8867 13.7505 11.25 13.7505C11.6133 13.7505 12.5 12.9172 12.5 12.9172M7.5 5.86719H12.5M7.5 7.70885H12.5M7.5 9.58385H12.5" stroke="#404040" stroke-width="0.833333" stroke-linecap="round" stroke-linejoin="round"/>
<path d="M13.3337 3.75H6.66699C5.97664 3.75 5.41699 4.30964 5.41699 5V15C5.41699 15.6904 5.97664 16.25 6.66699 16.25H13.3337C14.024 16.25 14.5837 15.6904 14.5837 15V5C14.5837 4.30964 14.024 3.75 13.3337 3.75Z" stroke="#404040" stroke-width="0.833333"/>
</svg>
