<svg width="20" height="20" viewBox="0 0 20 20" fill="none" xmlns="http://www.w3.org/2000/svg">
<path d="M8.33366 4.16602H2.50033C2.27931 4.16602 2.06735 4.25381 1.91107 4.41009C1.75479 4.56637 1.66699 4.77834 1.66699 4.99935V15.8327C1.66699 16.0537 1.75479 16.2657 1.91107 16.4219C2.06735 16.5782 2.27931 16.666 2.50033 16.666H17.5003C17.7213 16.666 17.9333 16.5782 18.0896 16.4219C18.2459 16.2657 18.3337 16.0537 18.3337 15.8327V14.791" stroke="white" stroke-width="1.33333" stroke-linecap="round" stroke-linejoin="round"/>
<path d="M4.16699 9.58398H7.50033M4.16699 12.9173H14.167" stroke="white" stroke-width="1.33333" stroke-linecap="round"/>
<path d="M14.167 9.16602C15.5477 9.16602 16.667 8.04673 16.667 6.66602C16.667 5.2853 15.5477 4.16602 14.167 4.16602C12.7863 4.16602 11.667 5.2853 11.667 6.66602C11.667 8.04673 12.7863 9.16602 14.167 9.16602Z" stroke="white" stroke-width="1.33333" stroke-linecap="round" stroke-linejoin="round"/>
<path d="M18.3333 11.8406C17.5196 10.2502 15.8333 9.16602 14.1667 9.16602C12.5 9.16602 11.6696 9.6381 10.8125 10.416" stroke="white" stroke-width="1.33333" stroke-linecap="round" stroke-linejoin="round"/>
</svg>
