<svg width="19" height="18" viewBox="0 0 19 18" fill="none" xmlns="http://www.w3.org/2000/svg">
<path d="M9.00977 16.5C7.98977 16.5 7.01477 16.305 6.08477 15.915C5.19477 15.535 4.40227 14.9975 3.70727 14.3025C3.01227 13.6075 2.47477 12.815 2.09477 11.925C1.70477 10.995 1.50977 10.02 1.50977 9C1.50977 7.98 1.70477 7.005 2.09477 6.075C2.47477 5.185 3.01227 4.3925 3.70727 3.6975C4.40227 3.0025 5.19477 2.465 6.08477 2.085C7.01477 1.695 7.98977 1.5 9.00977 1.5C10.0298 1.5 11.0048 1.695 11.9348 2.085C12.8248 2.465 13.6173 3.0025 14.3123 3.6975C15.0073 4.3925 15.5448 5.185 15.9248 6.075C16.3148 7.005 16.5098 7.98 16.5098 9C16.5098 10.02 16.3148 10.995 15.9248 11.925C15.5448 12.815 15.0073 13.6075 14.3123 14.3025C13.6173 14.9975 12.8248 15.535 11.9348 15.915C11.0048 16.305 10.0298 16.5 9.00977 16.5ZM9.00977 15C10.0998 15 11.1098 14.725 12.0398 14.175C12.9398 13.645 13.6548 12.93 14.1848 12.03C14.7348 11.1 15.0098 10.09 15.0098 9C15.0098 7.91 14.7348 6.9 14.1848 5.97C13.6548 5.07 12.9398 4.355 12.0398 3.825C11.1098 3.275 10.0998 3 9.00977 3C7.91977 3 6.90977 3.275 5.97977 3.825C5.07977 4.355 4.36477 5.07 3.83477 5.97C3.28477 6.9 3.00977 7.91 3.00977 9C3.00977 10.09 3.28477 11.1 3.83477 12.03C4.36477 12.93 5.07977 13.645 5.97977 14.175C6.90977 14.725 7.91977 15 9.00977 15ZM6.38477 10.5H10.5098C10.6098 10.5 10.6973 10.4625 10.7723 10.3875C10.8473 10.3125 10.8848 10.225 10.8848 10.125C10.8848 10.025 10.8473 9.9375 10.7723 9.8625C10.6973 9.7875 10.6098 9.75 10.5098 9.75H7.50977C7.16977 9.75 6.85727 9.665 6.57227 9.495C6.28727 9.325 6.05977 9.0975 5.88977 8.8125C5.71977 8.5275 5.63477 8.215 5.63477 7.875C5.63477 7.535 5.71977 7.2225 5.88977 6.9375C6.05977 6.6525 6.28727 6.425 6.57227 6.255C6.85727 6.085 7.16977 6 7.50977 6H8.25977V4.5H9.75977V6H11.6348V7.5H7.50977C7.40977 7.5 7.32227 7.5375 7.24727 7.6125C7.17227 7.6875 7.13477 7.775 7.13477 7.875C7.13477 7.975 7.17227 8.0625 7.24727 8.1375C7.32227 8.2125 7.40977 8.25 7.50977 8.25H10.5098C10.8498 8.25 11.1623 8.335 11.4473 8.505C11.7323 8.675 11.9598 8.9025 12.1298 9.1875C12.2998 9.4725 12.3848 9.785 12.3848 10.125C12.3848 10.465 12.2998 10.7775 12.1298 11.0625C11.9598 11.3475 11.7323 11.575 11.4473 11.745C11.1623 11.915 10.8498 12 10.5098 12H9.75977V13.5H8.25977V12H6.38477V10.5Z" fill="#4B5563"/>
</svg>
