<svg width="17" height="17" viewBox="0 0 17 17" fill="none" xmlns="http://www.w3.org/2000/svg">
<g clip-path="url(#clip0_10519_108110)">
<path d="M0.53125 16.4687H16.4687M2.96083 6.545L14.3437 1.37417M12.0912 0.53125L14.3437 1.37417L13.5008 3.63375M4.25 11.5104H2.125C1.98467 11.5123 1.85061 11.5688 1.75138 11.668C1.65214 11.7673 1.59558 11.9013 1.59375 12.0417V16.4687H4.78125V12.0417C4.77942 11.9013 4.72286 11.7673 4.62362 11.668C4.52439 11.5688 4.39033 11.5123 4.25 11.5104ZM9.5625 8.67708H7.4375C7.29717 8.67892 7.16311 8.73548 7.06388 8.83471C6.96464 8.93395 6.90808 9.06801 6.90625 9.20833V16.4687H10.0937V9.20833C10.0919 9.06801 10.0354 8.93395 9.93612 8.83471C9.83689 8.73548 9.70283 8.67892 9.5625 8.67708ZM14.875 5.84375H12.75C12.6097 5.84558 12.4756 5.90214 12.3764 6.00138C12.2771 6.10061 12.2206 6.23467 12.2187 6.375V16.4687H15.4062V6.375C15.4044 6.23467 15.3479 6.10061 15.2486 6.00138C15.1494 5.90214 15.0153 5.84558 14.875 5.84375Z" stroke="#404040" stroke-width="1.25" stroke-linecap="round" stroke-linejoin="round"/>
</g>
<defs>
<clipPath id="clip0_10519_108110">
<rect width="17" height="17" fill="white"/>
</clipPath>
</defs>
</svg>
