<svg width="17" height="17" viewBox="0 0 17 17" fill="none" xmlns="http://www.w3.org/2000/svg">
<g clip-path="url(#clip0_10966_26055)">
<path d="M8.50033 15.5827C12.4123 15.5827 15.5837 12.4114 15.5837 8.49935C15.5837 4.58733 12.4123 1.41602 8.50033 1.41602C4.58831 1.41602 1.41699 4.58733 1.41699 8.49935C1.41699 12.4114 4.58831 15.5827 8.50033 15.5827Z" stroke="#404040" stroke-width="1.41667"/>
<path d="M8.5 4.25V12.75M10.625 6.72917C10.625 5.75167 9.67371 4.95833 8.5 4.95833C7.32629 4.95833 6.375 5.75167 6.375 6.72917C6.375 7.70667 7.32629 8.5 8.5 8.5C9.67371 8.5 10.625 9.29333 10.625 10.2708C10.625 11.2483 9.67371 12.0417 8.5 12.0417C7.32629 12.0417 6.375 11.2483 6.375 10.2708" stroke="#404040" stroke-width="1.41667" stroke-linecap="round"/>
</g>
<defs>
<clipPath id="clip0_10966_26055">
<rect width="17" height="17" fill="white"/>
</clipPath>
</defs>
</svg>
