<svg width="19" height="18" viewBox="0 0 19 18" fill="none" xmlns="http://www.w3.org/2000/svg">
<path d="M16.5098 12.4351C16.5098 13.1351 16.3548 13.8001 16.0448 14.4301C15.7448 15.0301 15.3248 15.5426 14.7848 15.9676C14.2448 16.3926 13.6398 16.6801 12.9698 16.8301L12.4898 15.3901C12.9398 15.3201 13.3498 15.1551 13.7198 14.8951C14.0898 14.6351 14.3848 14.3101 14.6048 13.9201H12.7598C12.4898 13.9201 12.2398 13.8551 12.0098 13.7251C11.7798 13.5951 11.5973 13.4151 11.4623 13.1851C11.3273 12.9551 11.2598 12.7001 11.2598 12.4201V9.42008C11.2598 9.15008 11.3273 8.90008 11.4623 8.67008C11.5973 8.44008 11.7798 8.25758 12.0098 8.12258C12.2398 7.98758 12.4898 7.92008 12.7598 7.92008H14.9648C14.8448 6.95008 14.5048 6.06508 13.9448 5.26508C13.3848 4.46508 12.6798 3.83508 11.8298 3.37508C10.9498 2.90508 10.0098 2.67008 9.00977 2.67008C8.00977 2.67008 7.06977 2.90508 6.18977 3.37508C5.33977 3.83508 4.63477 4.46508 4.07477 5.26508C3.51477 6.06508 3.17477 6.95008 3.05477 7.92008H5.25977C5.52977 7.92008 5.77977 7.98758 6.00977 8.12258C6.23977 8.25758 6.42227 8.44008 6.55727 8.67008C6.69227 8.90008 6.75977 9.15008 6.75977 9.42008V12.4201C6.75977 12.7001 6.69227 12.9551 6.55727 13.1851C6.42227 13.4151 6.23977 13.5951 6.00977 13.7251C5.77977 13.8551 5.52977 13.9201 5.25977 13.9201H3.00977C2.73977 13.9201 2.48977 13.8551 2.25977 13.7251C2.02977 13.5951 1.84727 13.4151 1.71227 13.1851C1.57727 12.9551 1.50977 12.7001 1.50977 12.4201V8.67008C1.50977 7.66008 1.70477 6.69008 2.09477 5.76008C2.47477 4.86008 3.01227 4.06508 3.70727 3.37508C4.40227 2.68508 5.19477 2.15008 6.08477 1.77008C7.01477 1.37008 7.98977 1.17008 9.00977 1.17008C10.0298 1.17008 11.0048 1.37008 11.9348 1.77008C12.8248 2.15008 13.6173 2.68508 14.3123 3.37508C15.0073 4.06508 15.5448 4.86008 15.9248 5.76008C16.3148 6.69008 16.5098 7.66008 16.5098 8.67008V12.4351ZM15.0098 12.4201V9.42008H12.7598V12.4201H15.0098ZM3.00977 9.42008V12.4201H5.25977V9.42008H3.00977Z" fill="#4B5563"/>
</svg>
