<svg width="18" height="18" viewBox="0 0 18 18" fill="none" xmlns="http://www.w3.org/2000/svg">
<path d="M6.75 10.5L11.25 6" stroke="#404040" stroke-width="1.5" stroke-linecap="round" stroke-linejoin="round"/>
<path d="M6.75 6.375C6.75 6.47446 6.78951 6.56984 6.85983 6.64017C6.93016 6.71049 7.02554 6.75 7.125 6.75C7.22446 6.75 7.31984 6.71049 7.39017 6.64017C7.46049 6.56984 7.5 6.47446 7.5 6.375C7.5 6.27554 7.46049 6.18016 7.39017 6.10983C7.31984 6.03951 7.22446 6 7.125 6C7.02554 6 6.93016 6.03951 6.85983 6.10983C6.78951 6.18016 6.75 6.27554 6.75 6.375ZM10.5 10.125C10.5 10.2245 10.5395 10.3198 10.6098 10.3902C10.6802 10.4605 10.7755 10.5 10.875 10.5C10.9745 10.5 11.0698 10.4605 11.1402 10.3902C11.2105 10.3198 11.25 10.2245 11.25 10.125C11.25 10.0255 11.2105 9.93016 11.1402 9.85983C11.0698 9.78951 10.9745 9.75 10.875 9.75C10.7755 9.75 10.6802 9.78951 10.6098 9.85983C10.5395 9.93016 10.5 10.0255 10.5 10.125Z" fill="#404040" stroke="#404040" stroke-width="1.5" stroke-linecap="round" stroke-linejoin="round"/>
<path d="M3.75 15.75V3.75C3.75 3.35218 3.90804 2.97064 4.18934 2.68934C4.47064 2.40804 4.85218 2.25 5.25 2.25H12.75C13.1478 2.25 13.5294 2.40804 13.8107 2.68934C14.092 2.97064 14.25 3.35218 14.25 3.75V15.75L12 14.25L10.5 15.75L9 14.25L7.5 15.75L6 14.25L3.75 15.75Z" stroke="#404040" stroke-width="1.5" stroke-linecap="round" stroke-linejoin="round"/>
</svg>
