<svg width="16" height="16" viewBox="0 0 16 16" fill="none" xmlns="http://www.w3.org/2000/svg">
<g clip-path="url(#clip0_10966_92538)">
<path d="M13.344 1.33203C12.602 1.33203 12 3.1227 12 5.33203H13.344C13.992 5.33203 14.3153 5.33203 14.516 5.1087C14.716 4.8847 14.6813 4.59003 14.612 4.00136C14.4267 2.44536 13.9293 1.33203 13.344 1.33203Z" stroke="#404040" stroke-width="1.5"/>
<path d="M11.9997 5.36803V12.4294C11.9997 13.4367 11.9997 13.9407 11.6917 14.1394C11.1883 14.4634 10.4103 13.7834 10.019 13.5367C9.69567 13.3327 9.53434 13.2314 9.35501 13.2254C9.16101 13.2187 8.99634 13.3167 8.64701 13.5367L7.37301 14.34C7.02901 14.5567 6.85767 14.6654 6.66634 14.6654C6.47501 14.6654 6.30301 14.5567 5.95967 14.34L4.68634 13.5367C4.36234 13.3327 4.20101 13.2314 4.02167 13.2254C3.82767 13.2187 3.66301 13.3167 3.31367 13.5367C2.92234 13.7834 2.14434 14.4634 1.64034 14.1394C1.33301 13.9407 1.33301 13.4374 1.33301 12.4294V5.36803C1.33301 3.46536 1.33301 2.5147 1.91901 1.92336C2.50434 1.33203 3.44767 1.33203 5.33301 1.33203H13.333" stroke="#404040" stroke-width="1.5" stroke-linecap="round" stroke-linejoin="round"/>
<path d="M6.66634 5.33073C5.92967 5.33073 5.33301 5.77873 5.33301 6.33073C5.33301 6.88273 5.92967 7.33073 6.66634 7.33073C7.40301 7.33073 7.99967 7.77873 7.99967 8.33073C7.99967 8.88273 7.40301 9.33073 6.66634 9.33073M6.66634 5.33073C7.24634 5.33073 7.74101 5.60873 7.92367 5.9974M6.66634 5.33073V4.66406M6.66634 9.33073C6.08634 9.33073 5.59167 9.05273 5.40901 8.66406M6.66634 9.33073V9.9974" stroke="#404040" stroke-width="1.5" stroke-linecap="round"/>
</g>
<defs>
<clipPath id="clip0_10966_92538">
<rect width="16" height="16" fill="white"/>
</clipPath>
</defs>
</svg>
