<svg width="16" height="16" viewBox="0 0 16 16" fill="none" xmlns="http://www.w3.org/2000/svg">
<g clip-path="url(#clip0_10258_101104)">
<path d="M2.66699 3.33366C2.66699 3.15685 2.73723 2.98728 2.86225 2.86225C2.98728 2.73723 3.15685 2.66699 3.33366 2.66699H12.667C12.8438 2.66699 13.0134 2.73723 13.1384 2.86225C13.2634 2.98728 13.3337 3.15685 13.3337 3.33366V12.667C13.3337 12.8438 13.2634 13.0134 13.1384 13.1384C13.0134 13.2634 12.8438 13.3337 12.667 13.3337H3.33366C3.15685 13.3337 2.98728 13.2634 2.86225 13.1384C2.73723 13.0134 2.66699 12.8438 2.66699 12.667V3.33366Z" stroke="white" stroke-linecap="round" stroke-linejoin="round"/>
<path d="M2.66699 5.33301H13.3337" stroke="white" stroke-linecap="round" stroke-linejoin="round"/>
<path d="M5.33301 2.66699V5.33366" stroke="white" stroke-linecap="round" stroke-linejoin="round"/>
</g>
<defs>
<clipPath id="clip0_10258_101104">
<rect width="16" height="16" fill="white"/>
</clipPath>
</defs>
</svg>
