<svg width="16" height="16" viewBox="0 0 16 16" fill="none" xmlns="http://www.w3.org/2000/svg">
<g clip-path="url(#clip0_10258_101083)">
<path d="M6.66699 8.66634C6.66699 9.01996 6.80747 9.3591 7.05752 9.60915C7.30757 9.8592 7.6467 9.99967 8.00033 9.99967C8.35395 9.99967 8.69309 9.8592 8.94313 9.60915C9.19318 9.3591 9.33366 9.01996 9.33366 8.66634C9.33366 8.31272 9.19318 7.97358 8.94313 7.72353C8.69309 7.47348 8.35395 7.33301 8.00033 7.33301C7.6467 7.33301 7.30757 7.47348 7.05752 7.72353C6.80747 7.97358 6.66699 8.31272 6.66699 8.66634Z" stroke="white" stroke-linecap="round" stroke-linejoin="round"/>
<path d="M5.33301 14V13.3333C5.33301 12.9797 5.47348 12.6406 5.72353 12.3905C5.97358 12.1405 6.31272 12 6.66634 12H9.33301C9.68663 12 10.0258 12.1405 10.2758 12.3905C10.5259 12.6406 10.6663 12.9797 10.6663 13.3333V14" stroke="white" stroke-linecap="round" stroke-linejoin="round"/>
<path d="M10 3.33333C10 3.68696 10.1405 4.02609 10.3905 4.27614C10.6406 4.52619 10.9797 4.66667 11.3333 4.66667C11.687 4.66667 12.0261 4.52619 12.2761 4.27614C12.5262 4.02609 12.6667 3.68696 12.6667 3.33333C12.6667 2.97971 12.5262 2.64057 12.2761 2.39052C12.0261 2.14048 11.687 2 11.3333 2C10.9797 2 10.6406 2.14048 10.3905 2.39052C10.1405 2.64057 10 2.97971 10 3.33333Z" stroke="white" stroke-linecap="round" stroke-linejoin="round"/>
<path d="M11.333 6.66699H12.6663C13.02 6.66699 13.3591 6.80747 13.6092 7.05752C13.8592 7.30757 13.9997 7.6467 13.9997 8.00033V8.66699" stroke="white" stroke-linecap="round" stroke-linejoin="round"/>
<path d="M3.33301 3.33333C3.33301 3.68696 3.47348 4.02609 3.72353 4.27614C3.97358 4.52619 4.31272 4.66667 4.66634 4.66667C5.01996 4.66667 5.3591 4.52619 5.60915 4.27614C5.8592 4.02609 5.99967 3.68696 5.99967 3.33333C5.99967 2.97971 5.8592 2.64057 5.60915 2.39052C5.3591 2.14048 5.01996 2 4.66634 2C4.31272 2 3.97358 2.14048 3.72353 2.39052C3.47348 2.64057 3.33301 2.97971 3.33301 3.33333Z" stroke="white" stroke-linecap="round" stroke-linejoin="round"/>
<path d="M2 8.66699V8.00033C2 7.6467 2.14048 7.30757 2.39052 7.05752C2.64057 6.80747 2.97971 6.66699 3.33333 6.66699H4.66667" stroke="white" stroke-linecap="round" stroke-linejoin="round"/>
</g>
<defs>
<clipPath id="clip0_10258_101083">
<rect width="16" height="16" fill="white"/>
</clipPath>
</defs>
</svg>
